<mxfile host="app.diagrams.net" modified="2022-02-15T19:45:21.899Z" agent="5.0 (Windows NT 10.0; Win64; x64) AppleWebKit/537.36 (KHTML, like Gecko) Chrome/98.0.4758.82 Safari/537.36" etag="zO4hdG3eRsvG8l4bSuUb" version="16.5.6" type="github">
  <diagram id="C5RBs43oDa-KdzZeNtuy" name="Class Diagram">
    <mxGraphModel dx="914" dy="507" grid="1" gridSize="10" guides="1" tooltips="1" connect="1" arrows="1" fold="1" page="1" pageScale="1" pageWidth="827" pageHeight="1169" math="0" shadow="0">
      <root>
        <mxCell id="WIyWlLk6GJQsqaUBKTNV-0" />
        <mxCell id="WIyWlLk6GJQsqaUBKTNV-1" parent="WIyWlLk6GJQsqaUBKTNV-0" />
        <mxCell id="l6a2SUNXyMh3eiltvX4R-10" value="Admin" style="swimlane;fontStyle=1;align=center;verticalAlign=top;childLayout=stackLayout;horizontal=1;startSize=26;horizontalStack=0;resizeParent=1;resizeParentMax=0;resizeLast=0;collapsible=1;marginBottom=0;fillColor=#21C0A5;strokeColor=#006658;fontColor=#5C5C5C;" parent="WIyWlLk6GJQsqaUBKTNV-1" vertex="1" collapsed="1">
          <mxGeometry x="30" y="30" width="70" height="26" as="geometry">
            <mxRectangle x="30" y="30" width="160" height="294" as="alternateBounds" />
          </mxGeometry>
        </mxCell>
        <mxCell id="l6a2SUNXyMh3eiltvX4R-11" value="+ id: interger" style="text;strokeColor=none;fillColor=none;align=left;verticalAlign=top;spacingLeft=4;spacingRight=4;overflow=hidden;rotatable=0;points=[[0,0.5],[1,0.5]];portConstraint=eastwest;fontColor=#5C5C5C;" parent="l6a2SUNXyMh3eiltvX4R-10" vertex="1">
          <mxGeometry y="26" width="160" height="26" as="geometry" />
        </mxCell>
        <mxCell id="l6a2SUNXyMh3eiltvX4R-14" value="+ userName: string" style="text;strokeColor=none;fillColor=none;align=left;verticalAlign=top;spacingLeft=4;spacingRight=4;overflow=hidden;rotatable=0;points=[[0,0.5],[1,0.5]];portConstraint=eastwest;fontColor=#5C5C5C;" parent="l6a2SUNXyMh3eiltvX4R-10" vertex="1">
          <mxGeometry y="52" width="160" height="26" as="geometry" />
        </mxCell>
        <mxCell id="l6a2SUNXyMh3eiltvX4R-15" value="+ id: interger" style="text;strokeColor=none;fillColor=none;align=left;verticalAlign=top;spacingLeft=4;spacingRight=4;overflow=hidden;rotatable=0;points=[[0,0.5],[1,0.5]];portConstraint=eastwest;fontColor=#5C5C5C;" parent="l6a2SUNXyMh3eiltvX4R-10" vertex="1">
          <mxGeometry y="78" width="160" height="26" as="geometry" />
        </mxCell>
        <mxCell id="l6a2SUNXyMh3eiltvX4R-16" value="+ id: interger" style="text;strokeColor=none;fillColor=none;align=left;verticalAlign=top;spacingLeft=4;spacingRight=4;overflow=hidden;rotatable=0;points=[[0,0.5],[1,0.5]];portConstraint=eastwest;fontColor=#5C5C5C;" parent="l6a2SUNXyMh3eiltvX4R-10" vertex="1">
          <mxGeometry y="104" width="160" height="26" as="geometry" />
        </mxCell>
        <mxCell id="l6a2SUNXyMh3eiltvX4R-17" value="+ id: interger" style="text;strokeColor=none;fillColor=none;align=left;verticalAlign=top;spacingLeft=4;spacingRight=4;overflow=hidden;rotatable=0;points=[[0,0.5],[1,0.5]];portConstraint=eastwest;fontColor=#5C5C5C;" parent="l6a2SUNXyMh3eiltvX4R-10" vertex="1">
          <mxGeometry y="130" width="160" height="26" as="geometry" />
        </mxCell>
        <mxCell id="l6a2SUNXyMh3eiltvX4R-18" value="+ id: interger" style="text;strokeColor=none;fillColor=none;align=left;verticalAlign=top;spacingLeft=4;spacingRight=4;overflow=hidden;rotatable=0;points=[[0,0.5],[1,0.5]];portConstraint=eastwest;fontColor=#5C5C5C;" parent="l6a2SUNXyMh3eiltvX4R-10" vertex="1">
          <mxGeometry y="156" width="160" height="26" as="geometry" />
        </mxCell>
        <mxCell id="l6a2SUNXyMh3eiltvX4R-19" value="+ id: interger" style="text;strokeColor=none;fillColor=none;align=left;verticalAlign=top;spacingLeft=4;spacingRight=4;overflow=hidden;rotatable=0;points=[[0,0.5],[1,0.5]];portConstraint=eastwest;fontColor=#5C5C5C;" parent="l6a2SUNXyMh3eiltvX4R-10" vertex="1">
          <mxGeometry y="182" width="160" height="26" as="geometry" />
        </mxCell>
        <mxCell id="l6a2SUNXyMh3eiltvX4R-20" value="+ id: interger" style="text;strokeColor=none;fillColor=none;align=left;verticalAlign=top;spacingLeft=4;spacingRight=4;overflow=hidden;rotatable=0;points=[[0,0.5],[1,0.5]];portConstraint=eastwest;fontColor=#5C5C5C;" parent="l6a2SUNXyMh3eiltvX4R-10" vertex="1">
          <mxGeometry y="208" width="160" height="26" as="geometry" />
        </mxCell>
        <mxCell id="l6a2SUNXyMh3eiltvX4R-21" value="+ id: interger" style="text;strokeColor=none;fillColor=none;align=left;verticalAlign=top;spacingLeft=4;spacingRight=4;overflow=hidden;rotatable=0;points=[[0,0.5],[1,0.5]];portConstraint=eastwest;fontColor=#5C5C5C;" parent="l6a2SUNXyMh3eiltvX4R-10" vertex="1">
          <mxGeometry y="234" width="160" height="26" as="geometry" />
        </mxCell>
        <mxCell id="l6a2SUNXyMh3eiltvX4R-12" value="" style="line;strokeWidth=1;fillColor=none;align=left;verticalAlign=middle;spacingTop=-1;spacingLeft=3;spacingRight=3;rotatable=0;labelPosition=right;points=[];portConstraint=eastwest;strokeColor=#006658;fontColor=#5C5C5C;" parent="l6a2SUNXyMh3eiltvX4R-10" vertex="1">
          <mxGeometry y="260" width="160" height="8" as="geometry" />
        </mxCell>
        <mxCell id="l6a2SUNXyMh3eiltvX4R-13" value="+ method(type): type" style="text;strokeColor=none;fillColor=none;align=left;verticalAlign=top;spacingLeft=4;spacingRight=4;overflow=hidden;rotatable=0;points=[[0,0.5],[1,0.5]];portConstraint=eastwest;fontColor=#5C5C5C;" parent="l6a2SUNXyMh3eiltvX4R-10" vertex="1">
          <mxGeometry y="268" width="160" height="26" as="geometry" />
        </mxCell>
      </root>
    </mxGraphModel>
  </diagram>
</mxfile>
